<mxfile host="app.diagrams.net" modified="2023-08-28T16:08:16.680Z" agent="Mozilla/5.0 (Windows NT 10.0; Win64; x64) AppleWebKit/537.36 (KHTML, like Gecko) Chrome/116.0.0.0 Safari/537.36" etag="TL74BiJbLVeLkkmohv84" version="21.6.9" type="device">
  <diagram name="Page-1" id="c7488fd3-1785-93aa-aadb-54a6760d102a">
    <mxGraphModel dx="1517" dy="1682" grid="1" gridSize="10" guides="1" tooltips="1" connect="1" arrows="1" fold="1" page="1" pageScale="1" pageWidth="1100" pageHeight="850" background="none" math="0" shadow="0">
      <root>
        <mxCell id="0" />
        <mxCell id="1" parent="0" />
        <mxCell id="-aHL-CrUmG4RdDhHwu-r-42" value="" style="rounded=0;whiteSpace=wrap;html=1;" vertex="1" parent="1">
          <mxGeometry x="30" y="-130" width="1530" height="1030" as="geometry" />
        </mxCell>
        <mxCell id="vi3PPAJw6ju6oKvP_PNe-5" value="&lt;p style=&quot;line-height: 115%; font-size: 14px;&quot; align=&quot;center&quot; class=&quot;MsoNormal&quot;&gt;Заключение договора о банковском обслуживании клиента&lt;/p&gt;" style="swimlane;html=1;childLayout=stackLayout;resizeParent=1;resizeParentMax=0;horizontal=1;startSize=20;horizontalStack=0;whiteSpace=wrap;fontSize=14;" parent="1" vertex="1">
          <mxGeometry x="70" y="20" width="1450" height="640" as="geometry" />
        </mxCell>
        <mxCell id="GULpCpOQC7sV365nD3gS-1" value="Клиент" style="swimlane;html=1;startSize=20;horizontal=0;fontSize=14;" parent="vi3PPAJw6ju6oKvP_PNe-5" vertex="1">
          <mxGeometry y="20" width="1450" height="200" as="geometry" />
        </mxCell>
        <mxCell id="vi3PPAJw6ju6oKvP_PNe-15" value="&lt;p style=&quot;margin-top: 0pt; margin-bottom: 0pt; margin-left: 0in; direction: ltr; unicode-bidi: embed; word-break: normal; font-size: 14px;&quot;&gt;Ожидание клиента&lt;br style=&quot;border-color: var(--border-color); background-color: rgb(251, 251, 251); font-size: 14px;&quot;&gt;&lt;span style=&quot;background-color: rgb(251, 251, 251); font-size: 14px;&quot;&gt;в очереди банка&lt;/span&gt;&lt;br style=&quot;font-size: 14px;&quot;&gt;&lt;/p&gt;" style="points=[[0.145,0.145,0],[0.5,0,0],[0.855,0.145,0],[1,0.5,0],[0.855,0.855,0],[0.5,1,0],[0.145,0.855,0],[0,0.5,0]];shape=mxgraph.bpmn.event;html=1;verticalLabelPosition=bottom;labelBackgroundColor=#ffffff;verticalAlign=top;align=center;perimeter=ellipsePerimeter;outlineConnect=0;aspect=fixed;outline=standard;symbol=general;fillColor=#cdeb8b;strokeColor=#36393d;fontSize=14;" parent="GULpCpOQC7sV365nD3gS-1" vertex="1">
          <mxGeometry x="60" y="70" width="50" height="50" as="geometry" />
        </mxCell>
        <mxCell id="GULpCpOQC7sV365nD3gS-11" value="&lt;p style=&quot;margin-top: 0pt; margin-bottom: 0pt; margin-left: 0in; direction: ltr; unicode-bidi: embed; word-break: normal; font-size: 14px;&quot;&gt;Заполнение заявления на оформление договора&lt;/p&gt;" style="points=[[0.25,0,0],[0.5,0,0],[0.75,0,0],[1,0.25,0],[1,0.5,0],[1,0.75,0],[0.75,1,0],[0.5,1,0],[0.25,1,0],[0,0.75,0],[0,0.5,0],[0,0.25,0]];shape=mxgraph.bpmn.task;whiteSpace=wrap;rectStyle=rounded;size=10;html=1;container=1;expand=0;collapsible=0;taskMarker=abstract;fillColor=#dae8fc;strokeColor=#6c8ebf;fontSize=14;" parent="GULpCpOQC7sV365nD3gS-1" vertex="1">
          <mxGeometry x="170" y="20" width="100" height="85" as="geometry" />
        </mxCell>
        <mxCell id="vi3PPAJw6ju6oKvP_PNe-3" value="Заявление &lt;br style=&quot;font-size: 14px;&quot;&gt;от клиента" style="shape=mxgraph.bpmn.data;labelPosition=center;verticalLabelPosition=bottom;align=center;verticalAlign=top;size=15;html=1;fontSize=14;" parent="GULpCpOQC7sV365nD3gS-1" vertex="1">
          <mxGeometry x="310" y="75" width="40" height="60" as="geometry" />
        </mxCell>
        <mxCell id="so8Iw1uQF-JVvtIgEk_v-6" value="" style="edgeStyle=elbowEdgeStyle;fontSize=14;html=1;endFill=0;startFill=0;endSize=6;startSize=6;dashed=1;dashPattern=1 4;endArrow=openThin;startArrow=none;rounded=0;entryX=-0.107;entryY=0.568;entryDx=0;entryDy=0;entryPerimeter=0;exitX=1.02;exitY=0.634;exitDx=0;exitDy=0;exitPerimeter=0;strokeWidth=2;" parent="GULpCpOQC7sV365nD3gS-1" source="GULpCpOQC7sV365nD3gS-11" target="vi3PPAJw6ju6oKvP_PNe-3" edge="1">
          <mxGeometry width="160" relative="1" as="geometry">
            <mxPoint x="170" y="140" as="sourcePoint" />
            <mxPoint x="270" y="130" as="targetPoint" />
          </mxGeometry>
        </mxCell>
        <mxCell id="-aHL-CrUmG4RdDhHwu-r-18" style="edgeStyle=orthogonalEdgeStyle;rounded=0;orthogonalLoop=1;jettySize=auto;html=1;exitX=1;exitY=0.5;exitDx=0;exitDy=0;exitPerimeter=0;entryX=0;entryY=0.5;entryDx=0;entryDy=0;entryPerimeter=0;fontSize=14;" edge="1" parent="GULpCpOQC7sV365nD3gS-1" source="so8Iw1uQF-JVvtIgEk_v-16" target="-aHL-CrUmG4RdDhHwu-r-17">
          <mxGeometry relative="1" as="geometry" />
        </mxCell>
        <mxCell id="so8Iw1uQF-JVvtIgEk_v-16" value="&lt;p style=&quot;border-color: var(--border-color); background-color: rgb(251, 251, 251); margin-top: 0pt; margin-bottom: 0pt; margin-left: 0in; direction: ltr; unicode-bidi: embed; word-break: normal; font-size: 14px;&quot;&gt;Клиент согласен&amp;nbsp;&lt;/p&gt;&lt;p style=&quot;border-color: var(--border-color); background-color: rgb(251, 251, 251); margin-top: 0pt; margin-bottom: 0pt; margin-left: 0in; direction: ltr; unicode-bidi: embed; word-break: normal; font-size: 14px;&quot;&gt;со всеми пунктами?&lt;/p&gt;" style="points=[[0.25,0.25,0],[0.5,0,0],[0.75,0.25,0],[1,0.5,0],[0.75,0.75,0],[0.5,1,0],[0.25,0.75,0],[0,0.5,0]];shape=mxgraph.bpmn.gateway2;html=1;verticalLabelPosition=bottom;labelBackgroundColor=#ffffff;verticalAlign=top;align=center;perimeter=rhombusPerimeter;outlineConnect=0;outline=none;symbol=none;gwType=exclusive;fontSize=14;" parent="GULpCpOQC7sV365nD3gS-1" vertex="1">
          <mxGeometry x="940" y="80" width="50" height="50" as="geometry" />
        </mxCell>
        <mxCell id="-aHL-CrUmG4RdDhHwu-r-11" value="НЕТ" style="text;html=1;strokeColor=none;fillColor=none;align=center;verticalAlign=middle;whiteSpace=wrap;rounded=0;fontSize=14;" vertex="1" parent="GULpCpOQC7sV365nD3gS-1">
          <mxGeometry x="760" y="75" width="60" height="30" as="geometry" />
        </mxCell>
        <mxCell id="-aHL-CrUmG4RdDhHwu-r-17" value="&lt;p style=&quot;margin-top: 0pt; margin-bottom: 0pt; margin-left: 0in; direction: ltr; unicode-bidi: embed; word-break: normal; font-size: 14px;&quot;&gt;Подписи клиента&amp;nbsp;&lt;/p&gt;&lt;p style=&quot;margin-top: 0pt; margin-bottom: 0pt; margin-left: 0in; direction: ltr; unicode-bidi: embed; word-break: normal; font-size: 14px;&quot;&gt;на договоре&lt;/p&gt;" style="points=[[0.25,0,0],[0.5,0,0],[0.75,0,0],[1,0.25,0],[1,0.5,0],[1,0.75,0],[0.75,1,0],[0.5,1,0],[0.25,1,0],[0,0.75,0],[0,0.5,0],[0,0.25,0]];shape=mxgraph.bpmn.task;whiteSpace=wrap;rectStyle=rounded;size=10;html=1;container=1;expand=0;collapsible=0;taskMarker=abstract;fillColor=#dae8fc;strokeColor=#6c8ebf;fontSize=14;" vertex="1" parent="GULpCpOQC7sV365nD3gS-1">
          <mxGeometry x="1080" y="120" width="160" height="60" as="geometry" />
        </mxCell>
        <mxCell id="-aHL-CrUmG4RdDhHwu-r-19" value="ДА" style="text;html=1;strokeColor=none;fillColor=none;align=center;verticalAlign=middle;whiteSpace=wrap;rounded=0;fontSize=14;" vertex="1" parent="GULpCpOQC7sV365nD3gS-1">
          <mxGeometry x="990" y="70" width="60" height="30" as="geometry" />
        </mxCell>
        <mxCell id="-aHL-CrUmG4RdDhHwu-r-23" value="" style="edgeStyle=elbowEdgeStyle;fontSize=14;html=1;endFill=0;startFill=0;endSize=6;startSize=6;dashed=1;dashPattern=1 4;endArrow=openThin;startArrow=none;rounded=0;entryX=0;entryY=0.5;entryDx=0;entryDy=0;entryPerimeter=0;exitX=0.5;exitY=0;exitDx=0;exitDy=0;exitPerimeter=0;strokeWidth=2;" edge="1" parent="GULpCpOQC7sV365nD3gS-1" source="-aHL-CrUmG4RdDhHwu-r-17" target="-aHL-CrUmG4RdDhHwu-r-27">
          <mxGeometry width="160" relative="1" as="geometry">
            <mxPoint x="1274" y="161" as="sourcePoint" />
            <mxPoint x="1320" y="80" as="targetPoint" />
            <Array as="points">
              <mxPoint x="1160" y="70" />
            </Array>
          </mxGeometry>
        </mxCell>
        <mxCell id="-aHL-CrUmG4RdDhHwu-r-27" value="Подписанный договор &lt;br style=&quot;font-size: 14px;&quot;&gt;об обслуживании" style="shape=mxgraph.bpmn.data;labelPosition=center;verticalLabelPosition=bottom;align=center;verticalAlign=top;size=15;html=1;fontSize=14;" vertex="1" parent="GULpCpOQC7sV365nD3gS-1">
          <mxGeometry x="1220" y="10" width="40" height="60" as="geometry" />
        </mxCell>
        <mxCell id="vi3PPAJw6ju6oKvP_PNe-17" value="&lt;p style=&quot;margin-top: 0pt; margin-bottom: 0pt; margin-left: 0in; direction: ltr; unicode-bidi: embed; word-break: normal; font-size: 14px;&quot;&gt;Обслуживание&amp;nbsp;&lt;/p&gt;&lt;p style=&quot;margin-top: 0pt; margin-bottom: 0pt; margin-left: 0in; direction: ltr; unicode-bidi: embed; word-break: normal; font-size: 14px;&quot;&gt;клиента в банке&lt;br style=&quot;font-size: 14px;&quot;&gt;&lt;/p&gt;" style="points=[[0.145,0.145,0],[0.5,0,0],[0.855,0.145,0],[1,0.5,0],[0.855,0.855,0],[0.5,1,0],[0.145,0.855,0],[0,0.5,0]];shape=mxgraph.bpmn.event;html=1;verticalLabelPosition=bottom;labelBackgroundColor=#ffffff;verticalAlign=top;align=center;perimeter=ellipsePerimeter;outlineConnect=0;aspect=fixed;outline=throwing;symbol=general;fillColor=#f8cecc;strokeColor=#b85450;gradientColor=#ea6b66;fontSize=14;" parent="GULpCpOQC7sV365nD3gS-1" vertex="1">
          <mxGeometry x="1350" y="90" width="70" height="70" as="geometry" />
        </mxCell>
        <mxCell id="vi3PPAJw6ju6oKvP_PNe-6" value="Сотрудник, ответственный за оформление договора" style="swimlane;html=1;startSize=20;horizontal=0;fontSize=14;" parent="vi3PPAJw6ju6oKvP_PNe-5" vertex="1">
          <mxGeometry y="220" width="1450" height="420" as="geometry" />
        </mxCell>
        <mxCell id="so8Iw1uQF-JVvtIgEk_v-9" style="edgeStyle=orthogonalEdgeStyle;rounded=0;orthogonalLoop=1;jettySize=auto;html=1;entryX=0;entryY=0.5;entryDx=0;entryDy=0;fontSize=14;" parent="vi3PPAJw6ju6oKvP_PNe-6" source="vi3PPAJw6ju6oKvP_PNe-16" target="vi3PPAJw6ju6oKvP_PNe-4" edge="1">
          <mxGeometry relative="1" as="geometry">
            <mxPoint x="470" y="260" as="targetPoint" />
          </mxGeometry>
        </mxCell>
        <mxCell id="vi3PPAJw6ju6oKvP_PNe-16" value="Заполненное заявление &lt;br style=&quot;font-size: 14px;&quot;&gt;на обслуживание клиента &lt;br style=&quot;font-size: 14px;&quot;&gt;в банке" style="points=[[0.145,0.145,0],[0.5,0,0],[0.855,0.145,0],[1,0.5,0],[0.855,0.855,0],[0.5,1,0],[0.145,0.855,0],[0,0.5,0]];shape=mxgraph.bpmn.event;html=1;verticalLabelPosition=bottom;labelBackgroundColor=#ffffff;verticalAlign=top;align=center;perimeter=ellipsePerimeter;outlineConnect=0;aspect=fixed;outline=standard;symbol=message;fillColor=#fad7ac;strokeColor=#b46504;fontSize=14;" parent="vi3PPAJw6ju6oKvP_PNe-6" vertex="1">
          <mxGeometry x="410" y="62.5" width="90" height="90" as="geometry" />
        </mxCell>
        <mxCell id="so8Iw1uQF-JVvtIgEk_v-5" value="&lt;p style=&quot;margin-top: 0pt; margin-bottom: 0pt; margin-left: 0in; direction: ltr; unicode-bidi: embed; word-break: normal; font-size: 14px;&quot;&gt;Удостоверение&lt;br style=&quot;font-size: 14px;&quot;&gt;личности клиента, проверка паспорта, других документов&amp;nbsp;&lt;/p&gt;" style="points=[[0.25,0,0],[0.5,0,0],[0.75,0,0],[1,0.25,0],[1,0.5,0],[1,0.75,0],[0.75,1,0],[0.5,1,0],[0.25,1,0],[0,0.75,0],[0,0.5,0],[0,0.25,0]];shape=mxgraph.bpmn.task;whiteSpace=wrap;rectStyle=rounded;size=10;html=1;container=1;expand=0;collapsible=0;taskMarker=abstract;fillColor=#dae8fc;strokeColor=#6c8ebf;fontSize=14;" parent="vi3PPAJw6ju6oKvP_PNe-6" vertex="1">
          <mxGeometry x="70" y="60" width="150" height="120" as="geometry" />
        </mxCell>
        <mxCell id="-aHL-CrUmG4RdDhHwu-r-12" style="edgeStyle=orthogonalEdgeStyle;rounded=0;orthogonalLoop=1;jettySize=auto;html=1;entryX=1;entryY=0.5;entryDx=0;entryDy=0;exitX=0.5;exitY=1;exitDx=0;exitDy=0;exitPerimeter=0;fontSize=14;" edge="1" parent="vi3PPAJw6ju6oKvP_PNe-6" source="so8Iw1uQF-JVvtIgEk_v-10" target="vi3PPAJw6ju6oKvP_PNe-4">
          <mxGeometry relative="1" as="geometry">
            <mxPoint x="585" y="290" as="targetPoint" />
            <Array as="points">
              <mxPoint x="685" y="270" />
            </Array>
          </mxGeometry>
        </mxCell>
        <mxCell id="so8Iw1uQF-JVvtIgEk_v-10" value="&lt;p style=&quot;margin-top: 0pt; margin-bottom: 0pt; margin-left: 0in; direction: ltr; unicode-bidi: embed; word-break: normal; font-size: 14px;&quot;&gt;Информация&amp;nbsp;&lt;/p&gt;&lt;p style=&quot;margin-top: 0pt; margin-bottom: 0pt; margin-left: 0in; direction: ltr; unicode-bidi: embed; word-break: normal; font-size: 14px;&quot;&gt;собрана?&lt;/p&gt;" style="points=[[0.25,0.25,0],[0.5,0,0],[0.75,0.25,0],[1,0.5,0],[0.75,0.75,0],[0.5,1,0],[0.25,0.75,0],[0,0.5,0]];shape=mxgraph.bpmn.gateway2;html=1;verticalLabelPosition=bottom;labelBackgroundColor=#ffffff;verticalAlign=top;align=center;perimeter=rhombusPerimeter;outlineConnect=0;outline=none;symbol=none;gwType=exclusive;fontSize=14;" parent="vi3PPAJw6ju6oKvP_PNe-6" vertex="1">
          <mxGeometry x="650" y="60" width="70" height="60" as="geometry" />
        </mxCell>
        <mxCell id="so8Iw1uQF-JVvtIgEk_v-13" value="НЕТ" style="text;html=1;strokeColor=none;fillColor=none;align=center;verticalAlign=middle;whiteSpace=wrap;rounded=0;fontSize=14;" parent="vi3PPAJw6ju6oKvP_PNe-6" vertex="1">
          <mxGeometry x="680" y="185" width="60" height="30" as="geometry" />
        </mxCell>
        <mxCell id="so8Iw1uQF-JVvtIgEk_v-15" style="edgeStyle=orthogonalEdgeStyle;rounded=0;orthogonalLoop=1;jettySize=auto;html=1;entryX=0;entryY=0.5;entryDx=0;entryDy=0;entryPerimeter=0;fontSize=14;" parent="vi3PPAJw6ju6oKvP_PNe-6" source="so8Iw1uQF-JVvtIgEk_v-10" target="-aHL-CrUmG4RdDhHwu-r-4" edge="1">
          <mxGeometry relative="1" as="geometry">
            <mxPoint x="790" y="75" as="targetPoint" />
          </mxGeometry>
        </mxCell>
        <mxCell id="-aHL-CrUmG4RdDhHwu-r-2" value="ДА" style="text;html=1;strokeColor=none;fillColor=none;align=center;verticalAlign=middle;whiteSpace=wrap;rounded=0;fontSize=14;" vertex="1" parent="vi3PPAJw6ju6oKvP_PNe-6">
          <mxGeometry x="740" y="62.5" width="40" height="17.5" as="geometry" />
        </mxCell>
        <mxCell id="-aHL-CrUmG4RdDhHwu-r-4" value="&lt;p style=&quot;margin-top: 0pt; margin-bottom: 0pt; margin-left: 0in; direction: ltr; unicode-bidi: embed; word-break: normal; font-size: 14px;&quot;&gt;Документирование полученной информации, составление договора&lt;/p&gt;" style="points=[[0.25,0,0],[0.5,0,0],[0.75,0,0],[1,0.25,0],[1,0.5,0],[1,0.75,0],[0.75,1,0],[0.5,1,0],[0.25,1,0],[0,0.75,0],[0,0.5,0],[0,0.25,0]];shape=mxgraph.bpmn.task;whiteSpace=wrap;rectStyle=rounded;size=10;html=1;container=1;expand=0;collapsible=0;taskMarker=abstract;fillColor=#dae8fc;strokeColor=#6c8ebf;fontSize=14;" vertex="1" parent="vi3PPAJw6ju6oKvP_PNe-6">
          <mxGeometry x="920" y="270" width="190" height="90" as="geometry" />
        </mxCell>
        <mxCell id="-aHL-CrUmG4RdDhHwu-r-40" style="edgeStyle=orthogonalEdgeStyle;rounded=0;orthogonalLoop=1;jettySize=auto;html=1;entryX=0;entryY=0.5;entryDx=0;entryDy=0;entryPerimeter=0;fontSize=14;" edge="1" parent="vi3PPAJw6ju6oKvP_PNe-6" source="vi3PPAJw6ju6oKvP_PNe-4" target="so8Iw1uQF-JVvtIgEk_v-10">
          <mxGeometry relative="1" as="geometry">
            <mxPoint x="585" y="79.99999999999977" as="targetPoint" />
          </mxGeometry>
        </mxCell>
        <mxCell id="vi3PPAJw6ju6oKvP_PNe-4" value="Сбор сведений о клиенте &lt;br style=&quot;font-size: 14px;&quot;&gt;(Know your customer) &lt;br style=&quot;font-size: 14px;&quot;&gt;по правилам внутреннего &lt;br style=&quot;font-size: 14px;&quot;&gt;контроля в банке" style="shape=datastore;html=1;labelPosition=center;verticalLabelPosition=bottom;align=center;verticalAlign=top;fillColor=#b1ddf0;strokeColor=#10739e;fontSize=14;" parent="vi3PPAJw6ju6oKvP_PNe-6" vertex="1">
          <mxGeometry x="520" y="210" width="130" height="120" as="geometry" />
        </mxCell>
        <mxCell id="-aHL-CrUmG4RdDhHwu-r-14" value="Договор об &lt;br style=&quot;font-size: 14px;&quot;&gt;обслуживании" style="shape=mxgraph.bpmn.data;labelPosition=center;verticalLabelPosition=bottom;align=center;verticalAlign=top;size=15;html=1;fontSize=14;" vertex="1" parent="vi3PPAJw6ju6oKvP_PNe-6">
          <mxGeometry x="1060" y="100" width="40" height="60" as="geometry" />
        </mxCell>
        <mxCell id="-aHL-CrUmG4RdDhHwu-r-10" style="edgeStyle=orthogonalEdgeStyle;rounded=0;orthogonalLoop=1;jettySize=auto;html=1;entryX=0.5;entryY=0;entryDx=0;entryDy=0;exitX=0;exitY=0.5;exitDx=0;exitDy=0;exitPerimeter=0;fontSize=14;" edge="1" parent="vi3PPAJw6ju6oKvP_PNe-6" source="so8Iw1uQF-JVvtIgEk_v-16">
          <mxGeometry relative="1" as="geometry">
            <mxPoint x="915.0344827586207" y="-94.9655172413793" as="sourcePoint" />
            <mxPoint x="560" y="209.99999999999977" as="targetPoint" />
          </mxGeometry>
        </mxCell>
        <mxCell id="-aHL-CrUmG4RdDhHwu-r-41" value="" style="edgeStyle=elbowEdgeStyle;fontSize=14;html=1;endFill=0;startFill=0;endSize=6;startSize=6;dashed=1;dashPattern=1 4;endArrow=openThin;startArrow=none;rounded=0;entryX=0;entryY=0;entryDx=40;entryDy=37.5;entryPerimeter=0;exitX=1;exitY=0.5;exitDx=0;exitDy=0;exitPerimeter=0;strokeWidth=2;" edge="1" parent="vi3PPAJw6ju6oKvP_PNe-6" source="-aHL-CrUmG4RdDhHwu-r-4" target="-aHL-CrUmG4RdDhHwu-r-14">
          <mxGeometry width="160" relative="1" as="geometry">
            <mxPoint x="1120" y="280" as="sourcePoint" />
            <mxPoint x="1180" y="200" as="targetPoint" />
            <Array as="points">
              <mxPoint x="1140" y="220" />
            </Array>
          </mxGeometry>
        </mxCell>
        <mxCell id="vi3PPAJw6ju6oKvP_PNe-10" value="" style="edgeStyle=elbowEdgeStyle;fontSize=14;html=1;endArrow=blockThin;endFill=1;rounded=0;entryX=0;entryY=0.5;entryDx=0;entryDy=0;entryPerimeter=0;exitX=1;exitY=0.25;exitDx=0;exitDy=0;exitPerimeter=0;" parent="vi3PPAJw6ju6oKvP_PNe-5" source="GULpCpOQC7sV365nD3gS-11" target="vi3PPAJw6ju6oKvP_PNe-16" edge="1">
          <mxGeometry width="160" relative="1" as="geometry">
            <mxPoint x="280" y="69.5" as="sourcePoint" />
            <mxPoint x="450" y="295" as="targetPoint" />
            <Array as="points">
              <mxPoint x="390" y="180" />
            </Array>
          </mxGeometry>
        </mxCell>
        <mxCell id="so8Iw1uQF-JVvtIgEk_v-7" style="edgeStyle=orthogonalEdgeStyle;rounded=0;orthogonalLoop=1;jettySize=auto;html=1;entryX=0.106;entryY=-0.001;entryDx=0;entryDy=0;entryPerimeter=0;fontSize=14;" parent="vi3PPAJw6ju6oKvP_PNe-5" source="vi3PPAJw6ju6oKvP_PNe-15" target="so8Iw1uQF-JVvtIgEk_v-5" edge="1">
          <mxGeometry relative="1" as="geometry" />
        </mxCell>
        <mxCell id="GULpCpOQC7sV365nD3gS-20" style="edgeStyle=orthogonalEdgeStyle;rounded=0;orthogonalLoop=1;jettySize=auto;html=1;exitX=0.532;exitY=-0.027;exitDx=0;exitDy=0;exitPerimeter=0;entryX=0;entryY=0.5;entryDx=0;entryDy=0;entryPerimeter=0;fontSize=14;" parent="vi3PPAJw6ju6oKvP_PNe-5" source="so8Iw1uQF-JVvtIgEk_v-5" target="GULpCpOQC7sV365nD3gS-11" edge="1">
          <mxGeometry relative="1" as="geometry" />
        </mxCell>
        <mxCell id="-aHL-CrUmG4RdDhHwu-r-7" style="edgeStyle=orthogonalEdgeStyle;rounded=0;orthogonalLoop=1;jettySize=auto;html=1;fontSize=14;" edge="1" parent="vi3PPAJw6ju6oKvP_PNe-5" source="-aHL-CrUmG4RdDhHwu-r-4" target="so8Iw1uQF-JVvtIgEk_v-16">
          <mxGeometry relative="1" as="geometry" />
        </mxCell>
        <mxCell id="vi3PPAJw6ju6oKvP_PNe-7" value="Менеджер банка" style="swimlane;html=1;startSize=20;horizontal=0;fontSize=14;" parent="1" vertex="1">
          <mxGeometry x="70" y="660" width="1450" height="200" as="geometry" />
        </mxCell>
        <mxCell id="-aHL-CrUmG4RdDhHwu-r-24" value="&lt;p style=&quot;margin-top: 0pt; margin-bottom: 0pt; margin-left: 0in; direction: ltr; unicode-bidi: embed; word-break: normal; font-size: 14px;&quot;&gt;&lt;font style=&quot;font-size: 14px;&quot;&gt;Визирование договора официальным лицом&amp;nbsp;&lt;/font&gt;&lt;/p&gt;&lt;p style=&quot;margin-top: 0pt; margin-bottom: 0pt; margin-left: 0in; direction: ltr; unicode-bidi: embed; word-break: normal; font-size: 14px;&quot;&gt;&lt;font style=&quot;font-size: 14px;&quot;&gt;путём проставления подписи, штампа&amp;nbsp;&lt;/font&gt;&lt;/p&gt;&lt;p style=&quot;margin-top: 0pt; margin-bottom: 0pt; margin-left: 0in; direction: ltr; unicode-bidi: embed; word-break: normal; font-size: 14px;&quot;&gt;&lt;font style=&quot;font-size: 14px;&quot;&gt;или печати&lt;/font&gt;&lt;/p&gt;" style="points=[[0.25,0,0],[0.5,0,0],[0.75,0,0],[1,0.25,0],[1,0.5,0],[1,0.75,0],[0.75,1,0],[0.5,1,0],[0.25,1,0],[0,0.75,0],[0,0.5,0],[0,0.25,0]];shape=mxgraph.bpmn.task;whiteSpace=wrap;rectStyle=rounded;size=10;html=1;container=1;expand=0;collapsible=0;taskMarker=abstract;fillColor=#dae8fc;strokeColor=#6c8ebf;fontSize=14;" vertex="1" parent="vi3PPAJw6ju6oKvP_PNe-7">
          <mxGeometry x="1150" y="50" width="190" height="120" as="geometry" />
        </mxCell>
        <mxCell id="-aHL-CrUmG4RdDhHwu-r-20" value="Договор об обслуживании &lt;br style=&quot;font-size: 14px;&quot;&gt;со всеми подписями &lt;br style=&quot;font-size: 14px;&quot;&gt;и печатями" style="shape=mxgraph.bpmn.data;labelPosition=center;verticalLabelPosition=bottom;align=center;verticalAlign=top;size=15;html=1;fontSize=14;" vertex="1" parent="vi3PPAJw6ju6oKvP_PNe-7">
          <mxGeometry x="970" y="80" width="40" height="60" as="geometry" />
        </mxCell>
        <mxCell id="-aHL-CrUmG4RdDhHwu-r-29" value="" style="edgeStyle=elbowEdgeStyle;fontSize=14;html=1;endFill=0;startFill=0;endSize=6;startSize=6;dashed=1;dashPattern=1 4;endArrow=openThin;startArrow=none;rounded=0;entryX=1.129;entryY=0.587;entryDx=0;entryDy=0;entryPerimeter=0;exitX=0;exitY=0.548;exitDx=0;exitDy=0;exitPerimeter=0;strokeWidth=2;" edge="1" parent="vi3PPAJw6ju6oKvP_PNe-7" source="-aHL-CrUmG4RdDhHwu-r-24" target="-aHL-CrUmG4RdDhHwu-r-20">
          <mxGeometry width="160" relative="1" as="geometry">
            <mxPoint x="1080" y="123" as="sourcePoint" />
            <mxPoint x="1126" y="77" as="targetPoint" />
          </mxGeometry>
        </mxCell>
        <mxCell id="vi3PPAJw6ju6oKvP_PNe-14" value="Телефонный звонок клиента &lt;br&gt;в банк" style="points=[[0.25,0,0],[0.5,0,0],[0.75,0,0],[1,0.25,0],[1,0.5,0],[1,0.75,0],[0.75,1,0],[0.5,1,0],[0.25,1,0],[0,0.75,0],[0,0.5,0],[0,0.25,0]];shape=mxgraph.bpmn.task;whiteSpace=wrap;rectStyle=rounded;size=10;html=1;container=1;expand=0;collapsible=0;taskMarker=abstract;isLoopSub=1;fontSize=14;" parent="1" vertex="1">
          <mxGeometry x="150" y="-90" width="130" height="80" as="geometry" />
        </mxCell>
        <mxCell id="so8Iw1uQF-JVvtIgEk_v-1" value="" style="edgeStyle=elbowEdgeStyle;fontSize=14;html=1;endFill=0;startFill=0;endSize=6;startSize=6;dashed=1;dashPattern=1 4;endArrow=openThin;startArrow=none;rounded=0;exitX=0.002;exitY=0.605;exitDx=0;exitDy=0;exitPerimeter=0;strokeWidth=2;" parent="1" source="vi3PPAJw6ju6oKvP_PNe-14" target="vi3PPAJw6ju6oKvP_PNe-15" edge="1">
          <mxGeometry width="160" relative="1" as="geometry">
            <mxPoint x="80" y="-10" as="sourcePoint" />
            <mxPoint x="240" y="-10" as="targetPoint" />
            <Array as="points">
              <mxPoint x="100" y="30" />
            </Array>
          </mxGeometry>
        </mxCell>
        <mxCell id="-aHL-CrUmG4RdDhHwu-r-26" style="edgeStyle=orthogonalEdgeStyle;rounded=0;orthogonalLoop=1;jettySize=auto;html=1;fontSize=14;" edge="1" parent="1" source="-aHL-CrUmG4RdDhHwu-r-17" target="-aHL-CrUmG4RdDhHwu-r-24">
          <mxGeometry relative="1" as="geometry" />
        </mxCell>
        <mxCell id="-aHL-CrUmG4RdDhHwu-r-34" style="edgeStyle=orthogonalEdgeStyle;rounded=0;orthogonalLoop=1;jettySize=auto;html=1;entryX=0;entryY=0.5;entryDx=0;entryDy=0;entryPerimeter=0;fontSize=14;" edge="1" parent="1" source="-aHL-CrUmG4RdDhHwu-r-24" target="vi3PPAJw6ju6oKvP_PNe-17">
          <mxGeometry relative="1" as="geometry" />
        </mxCell>
      </root>
    </mxGraphModel>
  </diagram>
</mxfile>
